<svg width="1920" height="763" viewBox="0 0 1920 763" fill="none" xmlns="http://www.w3.org/2000/svg">
<mask id="mask0_6_111" style="mask-type:alpha" maskUnits="userSpaceOnUse" x="0" y="0" width="1920" height="763">
<rect width="1920" height="763" fill="#F4EDE5"/>
</mask>
<g mask="url(#mask0_6_111)">
<circle cx="108" cy="72" r="165" fill="#6F9557"/>
<circle cx="1822" cy="719" r="165" fill="#6F9557"/>
<path d="M1875.55 524.724C1891.93 508.573 1913.69 498.797 1936.67 498.094C1971.91 497.006 2010.95 505.549 2052.5 512.12C2068.69 514.682 2083.6 523.13 2093.29 536.351C2114.41 565.208 2095.26 593.191 2079.37 617.533C2066.76 636.845 2055.33 661.727 2066.36 681.973C2074.41 696.753 2091.57 703.384 2106.1 711.841C2124.8 722.74 2141.71 740.175 2143.79 761.741C2146.41 788.833 2124.51 813.064 2099.62 824.039C2074.74 835.015 2046.87 836.386 2020.14 841.407C1981.93 848.578 1945.31 863.435 1906.75 868.482C1868.2 873.528 1824.9 866.674 1799.03 837.62C1778.68 814.734 1772.74 781.559 1777.6 751.305C1782.48 721.052 1796.99 693.206 1813.49 667.39C1826.69 646.75 1841.7 625.955 1844.87 601.648C1845.29 598.417 1845.5 595.17 1845.58 591.914C1846.2 567.581 1855.65 544.319 1872.97 527.243L1875.55 524.724Z" stroke="#C0D7A0" stroke-width="1.5" stroke-miterlimit="10"/>
<path d="M-5.63397 186.219C-33.7414 189.582 -61.4505 182.609 -82.7729 165.827C-115.476 140.105 -143.674 102.057 -175.761 64.0324C-188.257 49.2197 -194.755 29.6057 -192.596 9.29347C-187.854 -35.0179 -147.492 -47.8667 -113.069 -59.622C-85.7612 -68.9505 -54.9181 -84.6243 -48.1775 -112.838C-43.257 -133.435 -53.2769 -152.975 -59.4122 -172.298C-67.3112 -197.194 -68.1882 -227.12 -52.2784 -249.82C-32.2974 -278.342 7.44922 -285.427 38.9674 -277.255C70.4857 -269.082 96.7705 -249.24 125.038 -233.837C165.447 -211.808 210.759 -198.516 249.724 -174.146C288.682 -149.783 322.112 -110.154 321.503 -62.0319C320.999 -24.1479 298.998 12.8563 269.657 38.788C240.301 64.7068 204.239 80.9479 168.052 93.6844C139.116 103.864 108.414 112.816 85.4995 134.207C82.4568 137.051 79.5931 140.075 76.8305 143.198C56.2046 166.559 28.4894 182.157 -1.23098 185.71L-5.63397 186.219Z" stroke="#C0D7A0" stroke-width="1.5" stroke-miterlimit="10"/>
</g>
</svg>
