<svg width="725" height="320" viewBox="0 0 725 320" fill="none" xmlns="http://www.w3.org/2000/svg">
<mask id="mask0_6_137" style="mask-type:alpha" maskUnits="userSpaceOnUse" x="0" y="0" width="725" height="320">
<rect width="725" height="320" fill="#C47A5F"/>
</mask>
<g mask="url(#mask0_6_137)">
<path d="M719.876 186.471C738.843 186.058 757.318 192.807 771.296 205.943C792.739 226.07 810.889 254.45 831.647 283.093C839.732 294.247 843.692 308.335 841.801 322.31C837.675 352.8 810.264 358.948 786.871 364.759C768.312 369.368 747.249 378.153 742.123 397.3C738.382 411.279 744.69 425.555 748.405 439.413C753.183 457.257 753.135 478.122 741.968 492.814C727.933 511.271 701.055 513.468 680.043 505.624C659.031 497.779 641.781 482.184 623.101 469.531C596.397 451.443 566.217 439.099 540.548 419.471C514.877 399.856 493.242 370.022 494.674 336.606C495.814 310.304 511.383 286.09 531.663 270.079C551.943 254.069 576.543 245.259 601.132 238.895C620.806 233.803 641.631 229.681 657.496 216.395C659.599 214.634 661.592 212.725 663.518 210.732C677.871 195.909 696.841 186.969 716.906 186.542L719.876 186.471Z" stroke="black" stroke-opacity="0.05" stroke-width="3" stroke-miterlimit="10"/>
<path d="M730.804 210.265C747.928 209.899 764.607 215.991 777.221 227.832C796.572 246.002 812.956 271.625 831.695 297.466C838.994 307.531 842.562 320.246 840.864 332.868C837.133 360.383 812.403 365.949 791.278 371.19C774.524 375.357 755.509 383.273 750.874 400.564C747.493 413.178 753.193 426.07 756.554 438.575C760.868 454.689 760.823 473.523 750.74 486.782C738.061 503.443 713.811 505.42 694.847 498.352C675.872 491.267 660.316 477.184 643.447 465.779C619.349 449.457 592.111 438.31 568.925 420.596C545.752 402.884 526.227 375.955 527.528 345.792C528.555 322.045 542.611 300.186 560.92 285.745C579.228 271.304 601.427 263.342 623.63 257.599C641.38 252.999 660.187 249.279 674.502 237.282C676.41 235.686 678.203 233.969 679.929 232.168C692.895 218.794 710.01 210.715 728.123 210.331L730.804 210.265Z" stroke="black" stroke-opacity="0.05" stroke-width="3" stroke-miterlimit="10"/>
<path d="M747.967 233.356C763.512 233.015 778.65 238.552 790.107 249.309C807.671 265.806 822.544 289.064 839.556 312.527C846.176 321.667 849.426 333.208 847.875 344.655C844.486 369.629 822.04 374.684 802.866 379.438C787.662 383.217 770.395 390.409 766.189 406.105C763.117 417.56 768.297 429.254 771.347 440.615C775.264 455.24 775.224 472.329 766.062 484.37C754.554 499.499 732.543 501.286 715.321 494.867C698.102 488.433 683.964 475.654 668.669 465.296C646.788 450.468 622.058 440.354 601.022 424.278C579.986 408.203 562.265 383.751 563.437 356.382C564.365 334.82 577.132 314.985 593.748 301.865C610.363 288.744 630.523 281.525 650.673 276.306C666.783 272.135 683.857 268.756 696.847 257.861C698.577 256.419 700.205 254.857 701.776 253.228C713.545 241.079 729.084 233.756 745.52 233.408L747.967 233.356Z" stroke="black" stroke-opacity="0.05" stroke-width="3" stroke-miterlimit="10"/>
<path d="M773.432 255.418C788.977 255.078 804.115 260.615 815.572 271.371C833.136 287.869 848.009 311.126 865.022 334.59C871.641 343.73 874.892 355.271 873.34 366.718C869.952 391.692 847.505 396.747 828.331 401.501C813.128 405.28 795.861 412.472 791.655 428.168C788.583 439.623 793.762 451.317 796.813 462.678C800.729 477.302 800.69 494.392 791.528 506.432C780.02 521.562 758.008 523.349 740.787 516.929C723.568 510.496 709.429 497.717 694.135 487.359C672.254 472.53 647.524 462.416 626.487 446.341C605.451 430.266 587.731 405.814 588.902 378.445C589.83 356.883 602.598 337.048 619.213 323.928C635.829 310.807 655.989 303.588 676.138 298.369C692.249 294.198 709.323 290.819 722.313 279.924C724.042 278.481 725.67 276.92 727.242 275.291C739.011 263.142 754.55 255.819 770.986 255.47L773.432 255.418Z" stroke="black" stroke-opacity="0.05" stroke-width="3" stroke-miterlimit="10"/>
<path d="M763.855 138.266C788.95 137.731 813.404 146.665 831.905 164.021C860.273 190.654 884.295 228.222 911.764 266.107C922.461 280.859 927.694 299.502 925.192 318C919.728 358.331 883.461 366.489 852.51 374.176C827.955 380.275 800.076 391.888 793.279 417.239C788.325 435.745 796.692 454.619 801.598 472.959C807.917 496.579 807.866 524.182 793.074 543.632C774.507 568.069 738.957 570.978 711.14 560.599C683.324 550.219 660.512 529.569 635.791 512.833C600.453 488.899 560.521 472.549 526.554 446.592C492.586 420.634 463.96 381.149 465.853 336.93C467.348 302.123 487.967 270.079 514.796 248.888C541.635 227.714 574.177 216.054 606.728 207.63C632.756 200.885 660.326 195.439 681.305 177.854C684.088 175.517 686.727 172.997 689.275 170.374C708.273 150.751 733.371 138.929 759.923 138.361L763.855 138.266Z" stroke="black" stroke-opacity="0.05" stroke-width="3" stroke-miterlimit="10"/>
</g>
</svg>
